# xmcd
# 
# Track frame offsets:
#     150
#     23490
#     50347
#     83350
#     109142
#     124600
#     155502
#     184442
# 
# Disc length: 3347
# 
# Revision: 1
# Processed by: cddbd v1.5.2PL0 Copyright (c) Steve Scherf et al.
# Submitted via: fre:ac v1.0.27
# 
DISCID=580d1108
DTITLE=Medwyn Goodall - Medicine Woman
DYEAR=1992
DGENRE=New Age
TTITLE0=Invocation
TTITLE1=Talisman
TTITLE2=Temple Journey
TTITLE3=Medicine Woman
TTITLE4=Rejuvenation
TTITLE5=Sun Drumming
TTITLE6=Immortality
TTITLE7=Healing Resurgence
EXTD=
EXTT0=
EXTT1=
EXTT2=
EXTT3=
EXTT4=
EXTT5=
EXTT6=
EXTT7=
PLAYORDER=
